<svg
  xmlns="http://www.w3.org/2000/svg"
  viewBox="0 0 451.48 424.25">
  <defs>
    <style>.cls-1{fill:#2cc27d;}.cls-2{fill:#83e85a;}</style>
  </defs>
  <g id="Layer_2" data-name="Layer 2">
    <g id="Layer_1-2" data-name="Layer 1">
      <path class="cls-1"
        d="M140,372.5c50.8-53.57,44.29-142.24,44.29-142.24S95.37,228.44,44.56,282,.27,424.24.27,424.24,89.16,426.06,140,372.5Z" />
      <path class="cls-2"
        d="M249.48,398.64C159.66,350.53,126.22,238,126.22,238s112.18-34.49,202,13.62S451.48,412.26,451.48,412.26,339.3,446.75,249.48,398.64Z" />
      <path class="cls-1"
        d="M311.51,51.75C260.71,105.32,267.22,194,267.22,194s88.89,1.82,139.7-51.75S451.21,0,451.21,0,362.32-1.81,311.51,51.75Z" />
      <path class="cls-2"
        d="M202,25.61c89.82,48.12,123.26,160.62,123.26,160.62s-112.18,34.48-202-13.63S0,12,0,12,112.18-22.5,202,25.61Z" />
    </g>
  </g>
</svg>