<svg width="89" height="60" viewBox="0 0 89 60" fill="none" xmlns="http://www.w3.org/2000/svg">
<g clip-path="url(#clip0_131_663)">
<path d="M78.1355 19.4444H37.8761L34.1652 25.5005L38.208 28.0089H56.0497L41.772 51.4169H38.2135L49.7434 32.0898L48.4864 30.8328H40.7872L28.3377 51.4332H9.7615L28.1962 20.7122L26.6945 19.4281H19.0387L0 51.1938V57.0757L4.75016 59.9976H33.0988L33.1096 59.9813H66.2356L74.4518 54.0069L88.8329 29.9459L78.1409 19.4444H78.1355ZM68.929 47.151L63.0362 51.4005H51.49L65.7622 28.0034H72.9446L77.7328 32.6284L68.929 47.151Z" fill="#031CFA"/>
<path d="M15.9862 11.6744C17.2377 10.5536 18.5545 9.5143 19.9257 8.55121C20.1596 8.76885 20.4752 8.90488 20.8235 8.90488C21.5526 8.90488 22.1402 8.31179 22.1402 7.58812C22.1402 7.43032 22.1076 7.27253 22.0586 7.13106C22.1021 7.10385 22.1457 7.07664 22.1892 7.04944L23.5223 6.26047C24.431 5.77076 25.3342 5.27017 26.2755 4.84031L26.9775 4.5084C27.2114 4.39958 27.4508 4.30708 27.6903 4.2037L28.403 3.90443C28.6425 3.80105 28.8764 3.70311 29.1213 3.61605L30.5741 3.08281C31.0638 2.91957 31.5589 2.77266 32.0486 2.61487C34.0238 2.02178 36.0425 1.55384 38.0829 1.24913C40.1288 0.955305 42.191 0.802952 44.2587 0.775746C46.3209 0.808393 48.394 0.88457 50.4399 1.2056C50.9513 1.28178 51.4683 1.33075 51.9743 1.44501L53.4978 1.74428C53.623 1.77148 53.7535 1.79325 53.8787 1.82045L54.2541 1.91295L55.005 2.1034L55.7559 2.29384L56.1314 2.39178L56.5014 2.50604L57.9814 2.96855L58.3514 3.08281L58.7159 3.21884L59.445 3.4909L60.1742 3.76296C60.2939 3.80649 60.419 3.85002 60.5387 3.89899L60.8924 4.05678L62.318 4.67708C64.1898 5.55855 66.0289 6.52708 67.7592 7.68062C71.2742 9.90062 74.3811 12.73 77.1343 15.8587L76.1277 14.6562C75.959 14.4549 75.7958 14.2536 75.6217 14.0577L75.0885 13.4864C74.7293 13.1055 74.3757 12.7246 74.0111 12.3492L72.8739 11.2664C72.6834 11.0868 72.4985 10.9018 72.3026 10.7331L71.704 10.2217L71.1055 9.71018L70.8062 9.45444L70.6593 9.3293L70.5015 9.20959C69.669 8.57841 68.8529 7.91459 67.9768 7.34326C66.2628 6.13532 64.4183 5.12326 62.5411 4.18193L61.11 3.52355L60.7509 3.36031C60.6312 3.31134 60.5061 3.26237 60.3864 3.2134L59.6518 2.92502L58.9172 2.63663L58.5527 2.49516L58.1772 2.37001L56.6809 1.87487L56.3055 1.74972L55.9246 1.64634L55.1628 1.43957L54.4011 1.23281L54.0202 1.12942C53.895 1.09678 53.7644 1.07501 53.6338 1.04781C52.6055 0.835599 51.5771 0.601628 50.5324 0.471039C48.4538 0.122803 46.3481 0.0248618 44.2478 -0.0241089C42.1421 -0.0186677 40.0418 0.139127 37.9523 0.432951L36.3962 0.694128C36.135 0.732216 35.8792 0.79207 35.6235 0.846482L34.8509 1.00972C34.5951 1.06957 34.3339 1.1131 34.0782 1.17839L33.3164 1.37972C32.8104 1.52119 32.2935 1.63545 31.7983 1.80413C31.2978 1.96737 30.7917 2.11972 30.2966 2.2884L28.8166 2.83796C28.5663 2.92502 28.3269 3.0284 28.082 3.13178L27.3529 3.44193C27.1135 3.54531 26.8686 3.64325 26.6292 3.75208L25.9164 4.09487C24.9588 4.53561 24.0392 5.04708 23.1142 5.54767L21.7594 6.35841C21.6886 6.39649 21.6233 6.44002 21.5526 6.48355C21.3404 6.33664 21.0846 6.25502 20.8071 6.25502C20.078 6.25502 19.4904 6.84811 19.4904 7.57179C19.4904 7.66973 19.5013 7.76767 19.523 7.86018C18.1138 8.8668 16.7589 9.95503 15.4802 11.1194C13.9349 12.545 12.493 14.0849 11.1654 15.7118L10.1914 16.9524L9.27182 18.2311C9.19565 18.3399 9.11403 18.4433 9.04329 18.5521L8.83108 18.884L8.40123 19.5424C8.25976 19.7655 8.11285 19.9777 7.97682 20.2062L7.57961 20.8864C7.03549 21.7842 6.56211 22.7201 6.08328 23.6505L5.41946 25.0761C5.30519 25.3101 5.21269 25.5549 5.10931 25.7998L4.81005 26.5289C4.7121 26.7738 4.60328 27.0132 4.52166 27.258L4.26049 27.998C4.08637 28.4932 3.90137 28.9829 3.7599 29.4835C3.61298 29.9841 3.44975 30.4846 3.30828 30.9852L2.92195 32.5033C2.85122 32.7536 2.80769 33.0148 2.75328 33.2705L2.59548 34.0377C2.54651 34.2935 2.48666 34.5492 2.44313 34.805L2.32342 35.5776L2.20916 36.3502C2.19283 36.4808 2.16563 36.606 2.15475 36.7366L2.11666 37.1283L1.95886 38.6845C2.92739 30.3921 6.36623 22.4698 11.6714 16.1145C13.0045 14.5311 14.441 13.0402 15.9754 11.6472L15.9862 11.6744Z" fill="#031CFA"/>
</g>
<defs>
<clipPath id="clip0_131_663">
<rect width="88.8274" height="60" fill="white" transform="translate(0 -0.0078125)"/>
</clipPath>
</defs>
</svg>
